<?xml version="1.0" standalone="no"?>
<!DOCTYPE svg PUBLIC "-//W3C//DTD SVG 20010904//EN"
 "http://www.w3.org/TR/2001/REC-SVG-20010904/DTD/svg10.dtd">
<svg version="1.0" xmlns="http://www.w3.org/2000/svg"
 width="1254.000000pt" height="1254.000000pt" viewBox="0 0 1254.000000 1254.000000"
 preserveAspectRatio="xMidYMid meet">

<g transform="translate(0.000000,1254.000000) scale(0.100000,-0.100000)"
fill="#000000" stroke="none">
<path d="M1610 7805 c0 -3 8 -22 19 -43 10 -20 26 -68 35 -107 15 -63 17 -156
14 -918 l-3 -847 42 0 43 0 -6 573 c-2 314 -6 695 -7 845 -2 149 0 272 4 272
4 0 43 -42 86 -92 43 -51 296 -349 562 -663 266 -313 553 -652 638 -752 145
-171 157 -183 189 -183 l34 0 0 960 0 960 -38 0 -38 0 4 -712 c2 -392 3 -724
1 -738 -5 -29 -143 130 -1126 1291 -68 81 -133 149 -146 153 -28 7 -307 8
-307 1z"/>
<path d="M3830 6850 l0 -960 438 0 c472 0 554 7 696 55 96 32 157 67 226 132
106 97 146 198 138 343 -4 70 -11 99 -37 152 -71 149 -259 264 -491 299 -44 7
-77 15 -73 19 5 3 40 16 80 28 40 13 94 35 120 49 66 37 155 128 189 194 27
50 29 62 29 169 0 106 -2 120 -28 172 -54 110 -172 204 -315 251 -148 49 -235
57 -619 57 l-353 0 0 -960z m726 891 c150 -29 258 -109 305 -226 20 -52 24
-77 24 -185 0 -159 -20 -217 -104 -301 -97 -97 -189 -119 -498 -119 l-203 0 0
420 0 420 214 0 c117 0 235 -4 262 -9z m163 -915 c197 -51 314 -173 343 -360
30 -195 -54 -381 -205 -456 -106 -52 -170 -60 -489 -60 l-288 0 0 451 0 451
288 -5 c222 -3 302 -8 351 -21z"/>
<path d="M9500 7335 l-105 -52 -5 -119 -5 -119 -71 -3 c-70 -3 -71 -3 -66 -27
4 -24 8 -25 73 -25 l68 0 3 -453 3 -452 33 -68 c53 -107 141 -157 278 -157 87
0 161 30 230 92 49 45 53 53 40 66 -13 13 -18 12 -48 -13 -101 -86 -232 -72
-283 30 -19 38 -20 63 -23 498 l-3 457 153 0 153 0 245 -468 c135 -257 267
-510 294 -562 l49 -96 -52 -104 c-87 -171 -250 -419 -392 -594 -27 -33 -47
-61 -45 -63 3 -3 159 15 192 22 16 4 47 60 136 252 114 244 161 348 451 1008
80 182 177 402 216 489 39 87 71 160 71 162 0 2 -15 4 -34 4 -31 0 -35 -4 -54
-52 -19 -49 -90 -212 -277 -638 -42 -96 -79 -183 -82 -192 -3 -10 -8 -18 -12
-18 -7 0 -13 11 -267 502 -108 208 -201 381 -207 385 -7 5 -129 10 -272 13
l-260 5 -3 165 c-1 90 -6 167 -10 171 -4 3 -54 -17 -112 -46z"/>
<path d="M6008 7060 c-212 -38 -376 -162 -458 -344 -39 -87 -53 -158 -53 -261
3 -291 185 -517 469 -581 111 -24 294 -16 385 18 124 46 206 106 276 200 38
52 38 52 -3 72 -1 1 -20 -22 -42 -51 -58 -73 -157 -140 -250 -170 -106 -34
-239 -30 -325 9 -163 76 -254 241 -272 496 l-7 102 476 0 477 0 -6 38 c-21
130 -62 217 -145 305 -65 70 -163 129 -254 153 -66 18 -208 25 -268 14z m239
-75 c100 -49 170 -170 180 -312 l6 -73 -341 0 c-187 0 -343 3 -345 8 -9 15 23
136 51 197 50 106 126 175 222 202 65 19 163 9 227 -22z"/>
<path d="M7275 7064 c-139 -22 -274 -99 -340 -195 -28 -40 -28 -40 -9 -59 19
-19 20 -19 62 36 76 99 174 152 297 161 135 10 230 -38 281 -144 25 -50 29
-71 32 -175 l4 -118 -84 0 c-457 0 -718 -141 -718 -389 0 -94 24 -156 84 -216
69 -70 139 -97 267 -103 113 -5 186 8 267 49 54 27 138 103 169 154 10 16 12
2 12 -77 l1 -98 116 0 115 0 -3 438 c-3 426 -4 438 -26 493 -42 104 -131 182
-250 219 -62 19 -218 33 -277 24z m325 -712 c0 -168 0 -169 -30 -229 -78 -156
-263 -237 -402 -175 -161 71 -184 331 -42 462 81 75 193 108 367 109 l107 1 0
-168z"/>
<path d="M8040 6663 c0 -209 5 -406 10 -441 24 -145 90 -250 193 -307 79 -44
155 -58 269 -53 155 8 269 68 352 185 l41 58 3 -40 c2 -22 2 -70 0 -107 l-3
-68 118 0 117 0 -1 575 -1 575 -114 0 -114 0 0 -387 c0 -229 -5 -406 -11 -433
-26 -114 -103 -211 -202 -255 -53 -25 -69 -27 -147 -23 -71 3 -94 9 -133 31
-55 33 -91 76 -120 149 -21 51 -22 68 -25 486 l-3 432 -115 0 -114 0 0 -377z"/>
<path d="M3880 5180 l0 -120 70 0 c62 0 74 3 95 25 30 29 32 54 5 83 -12 12
-16 23 -10 27 6 3 10 21 10 40 0 48 -29 65 -107 65 l-63 0 0 -120z m134 63
c10 -25 -14 -43 -55 -43 -36 0 -39 2 -39 29 0 25 5 30 28 33 38 5 60 -1 66
-19z m-17 -79 c12 -3 25 -15 29 -27 9 -28 -19 -47 -68 -47 -38 0 -38 0 -38 40
0 37 2 40 28 40 15 0 37 -3 49 -6z"/>
<path d="M4290 5180 l0 -120 80 0 c63 0 80 3 80 15 0 10 -16 15 -62 17 -63 3
-63 3 -66 36 l-3 32 54 0 c38 0 57 4 60 14 8 22 -2 26 -60 26 -52 0 -53 0 -53
30 l0 30 65 0 c58 0 65 2 65 20 0 18 -7 20 -80 20 l-80 0 0 -120z"/>
<path d="M4741 5278 c-5 -13 -25 -62 -45 -110 -20 -48 -36 -92 -36 -97 0 -21
31 -11 42 14 10 22 17 25 69 25 52 0 57 -2 63 -25 4 -17 13 -25 27 -25 16 0
20 4 15 18 -58 153 -92 222 -108 222 -10 0 -22 -10 -27 -22z m53 -90 l15 -38
-41 0 c-34 0 -39 3 -33 18 4 9 12 30 17 45 12 32 20 28 42 -25z"/>
<path d="M5082 5206 c3 -84 6 -97 27 -120 31 -33 106 -37 142 -7 22 17 24 28
27 120 4 97 3 101 -17 101 -20 0 -21 -5 -21 -88 0 -73 -3 -92 -18 -105 -25
-23 -58 -21 -82 3 -17 17 -20 33 -20 105 0 80 -1 85 -21 85 -20 0 -21 -4 -17
-94z"/>
<path d="M5492 5283 c2 -13 14 -19 41 -21 l37 -3 0 -100 c0 -80 3 -99 15 -99
11 0 15 20 17 103 l3 102 35 1 c25 0 36 5 38 17 3 15 -8 17 -93 17 -86 0 -96
-2 -93 -17z"/>
<path d="M5870 5295 c0 -3 20 -37 45 -77 35 -56 45 -82 45 -115 0 -32 4 -43
15 -43 11 0 15 11 15 43 0 33 10 59 45 116 25 40 45 75 45 77 0 2 -9 4 -19 4
-12 0 -31 -19 -51 -50 -18 -27 -34 -50 -36 -50 -2 0 -18 23 -35 50 -20 32 -38
50 -50 50 -10 0 -19 -2 -19 -5z"/>
<path d="M6572 5280 c-44 -42 -23 -93 48 -114 52 -15 70 -37 51 -60 -17 -20
-60 -21 -88 -1 -18 12 -23 13 -32 1 -18 -22 24 -46 79 -46 36 0 52 5 68 23 42
45 23 86 -54 114 -36 14 -50 24 -52 40 -4 30 39 41 72 19 20 -13 26 -13 36 -2
8 11 6 18 -12 30 -32 23 -90 20 -116 -4z"/>
<path d="M6910 5293 c0 -4 18 -37 40 -74 31 -52 40 -78 40 -113 0 -39 3 -46
20 -46 17 0 20 7 20 46 0 35 9 61 40 114 45 77 46 80 25 80 -8 0 -30 -22 -47
-50 -18 -27 -36 -50 -40 -50 -4 0 -19 22 -35 50 -17 30 -35 50 -45 50 -10 0
-18 -3 -18 -7z"/>
<path d="M7332 5284 c-15 -10 -22 -25 -22 -48 0 -39 11 -50 70 -71 51 -18 63
-32 49 -57 -12 -23 -57 -24 -88 -2 -16 12 -26 13 -33 6 -16 -16 7 -40 48 -51
63 -17 114 11 114 64 0 37 -24 62 -68 71 -17 3 -38 14 -47 24 -15 16 -15 19 0
34 20 20 32 20 67 2 22 -12 29 -12 38 -1 29 35 -83 61 -128 29z"/>
<path d="M7670 5280 c0 -16 7 -20 35 -20 l35 0 0 -100 c0 -93 1 -100 20 -100
19 0 20 7 20 99 l0 100 37 3 c27 2 39 8 41 21 3 15 -6 17 -92 17 -89 0 -96 -1
-96 -20z"/>
<path d="M8070 5180 l0 -120 80 0 c63 0 80 3 80 15 0 10 -16 15 -62 17 -63 3
-63 3 -66 35 l-3 32 58 3 c45 2 59 7 61 20 3 14 -6 17 -55 20 -55 3 -58 4 -61
31 l-3 27 65 0 c59 0 66 2 66 20 0 18 -7 20 -80 20 l-80 0 0 -120z"/>
<path d="M8460 5179 c0 -109 2 -120 18 -117 14 3 17 15 17 80 0 84 4 85 44 11
14 -25 31 -48 38 -50 6 -2 27 24 47 59 l36 63 0 -82 c0 -76 2 -83 20 -83 19 0
20 7 20 120 0 110 -2 120 -18 120 -12 0 -32 -23 -58 -70 -21 -38 -42 -70 -46
-70 -4 0 -24 32 -44 70 -26 47 -44 70 -56 70 -16 0 -18 -11 -18 -121z"/>
</g>
</svg>
